<svg height='300px' width='300px'  fill="#000000" xmlns="http://www.w3.org/2000/svg" xmlns:xlink="http://www.w3.org/1999/xlink" version="1.1" x="0px" y="0px" viewBox="0 0 100 100" style="enable-background:new 0 0 100 100;" xml:space="preserve"><g><g><g><path d="M93.8,73.5c-0.3,0-0.6-0.1-0.8-0.4c-0.3-0.4-0.3-1.1,0.2-1.4c1.9-1.5,3.3-3.1,4.1-4.1C84.4,65,82.5,51.2,80.9,39     c-0.8-6.1-1.6-11.8-3.6-16.2c-4.1-9.1-13-15.1-23.9-16.2C42,5.5,31.2,9.9,25.3,18.3c-0.3,0.5-1,0.6-1.4,0.2     c-0.5-0.3-0.6-1-0.2-1.4C30,8.2,41.5,3.4,53.6,4.6C65.2,5.7,74.8,12.2,79.1,22c2.1,4.6,2.9,10.5,3.7,16.7     c1.7,12.6,3.5,25.6,16.3,27.2c0.3,0,0.6,0.2,0.8,0.6c0.2,0.3,0.1,0.7,0,1c-0.1,0.1-1.8,3.1-5.5,5.9C94.2,73.5,94,73.5,93.8,73.5z     "></path></g><g><path d="M20.3,78.3C6.7,78.3,0.2,67.5,0.1,67.4c-0.2-0.3-0.2-0.7,0-1c0.2-0.3,0.4-0.5,0.8-0.6C13.6,64.3,15.2,52.2,17,39.2     c0.1-0.7,0.2-1.5,0.3-2.2c0.1-0.6,0.6-0.9,1.1-0.9c0.6,0.1,0.9,0.6,0.9,1.1c-0.1,0.7-0.2,1.4-0.3,2.2     c-1.7,12.6-3.5,25.6-16.2,28.1c2.3,3.1,9.3,10.5,21.9,8.3c0.5-0.1,1.1,0.3,1.2,0.8c0.1,0.5-0.3,1.1-0.8,1.2     C23.3,78.2,21.8,78.3,20.3,78.3z"></path></g><g><path d="M73.1,45.9c-0.1,0-0.1,0-0.2,0c-6.6-1.5-12.3-6.4-15.7-9.4c-0.7-0.6-1.4-1.2-1.9-1.6c-6.1-4.8-13.3-6.1-19.2-3.3     c-0.5,0.2-1.1,0-1.3-0.5c-0.2-0.5,0-1.1,0.5-1.3c6.6-3.1,14.6-1.7,21.3,3.6c0.5,0.4,1.2,1,2,1.7c3.3,2.8,8.7,7.6,14.8,8.9     c0.5,0.1,0.9,0.7,0.8,1.2C73.9,45.6,73.5,45.9,73.1,45.9z"></path></g><g><path d="M50,86.5c-6.4,0-12.5-3.5-16.3-9.3c-6.2-9.9-7.5-25.8-7.8-32.1c0-0.6,0.4-1,1-1.1c0.6,0,1,0.4,1.1,1     c0.3,6.2,1.5,21.6,7.4,31.1c3.4,5.2,8.9,8.4,14.6,8.4c4.5,0,8.8-1.9,12.1-5.3c0.4-0.4,1-0.4,1.4,0c0.4,0.4,0.4,1,0,1.4     C59.8,84.4,55,86.5,50,86.5z"></path></g><g><path d="M71.4,63.8c-0.1,0-0.2,0-0.2,0c-0.5-0.1-0.9-0.7-0.7-1.2c1.2-4.8,1.7-10.1,1.7-17.7c0-0.6,0.5-1,1-1c0.6,0,1,0.5,1,1     c0,7.7-0.5,13.1-1.7,18.2C72.2,63.5,71.8,63.8,71.4,63.8z"></path></g></g><g><g><path d="M94.6,95.6H66.9c-0.6,0-1-0.5-1-1V66.9c0-0.4,0.2-0.8,0.6-0.9c0.4-0.2,0.8-0.1,1.1,0.2l27.7,27.7     c0.3,0.3,0.4,0.7,0.2,1.1C95.4,95.4,95,95.6,94.6,95.6z M67.9,93.6h24.3L67.9,69.3V93.6z"></path></g><g><path d="M94.6,95.6c-0.6,0-1-0.5-1-1V80.3L81.1,67.9H66.9c-0.6,0-1-0.5-1-1s0.5-1,1-1h14.7c0.3,0,0.5,0.1,0.7,0.3l13,13     c0.2,0.2,0.3,0.4,0.3,0.7v14.7C95.6,95.1,95.1,95.6,94.6,95.6z"></path></g><g><path d="M85.9,86.9H75.4c-0.6,0-1-0.5-1-1V75.4c0-0.6,0.5-1,1-1c0.6,0,1,0.5,1,1v9.4h9.4c0.6,0,1,0.5,1,1     C86.9,86.4,86.4,86.9,85.9,86.9z"></path></g><g><path d="M69.9,92.4c-0.3,0-0.5-0.1-0.7-0.3c-0.4-0.4-0.4-1,0-1.4l5.5-5.5c0.4-0.4,1-0.4,1.4,0s0.4,1,0,1.4l-5.5,5.5     C70.4,92.3,70.1,92.4,69.9,92.4z"></path></g></g><g><g><path d="M41.3,54.3c-1.9,0-3.7-0.7-5.2-2.1c-1.1-1.1-1.9-2.6-2.1-4.3l-3.8-3.8c-0.1-0.1-0.1-0.2-0.2-0.2l-1.2-2.3     c-0.8-1.5-2-2.7-3.4-3.6l-3-1.8c-0.1,0-0.1-0.1-0.2-0.2L7,20.8c-2.2-2.2-2.2-5.9,0-8.1c2.2-2.2,5.9-2.2,8.1,0l15.3,15.3     c0.1,0.1,0.1,0.1,0.2,0.2l1.8,3c0.9,1.5,2.1,2.7,3.6,3.4l2.3,1.2c0.1,0,0.2,0.1,0.2,0.2l3.8,3.8c1.6,0.2,3.1,0.9,4.3,2.1     c2.8,2.8,2.8,7.5,0,10.3C45.1,53.6,43.2,54.3,41.3,54.3z M31.9,42.8l3.9,3.9c0.2,0.2,0.3,0.4,0.3,0.6c0.1,1.3,0.6,2.5,1.5,3.4     c2.1,2.1,5.4,2.1,7.5,0c2.1-2.1,2.1-5.4,0-7.5c-0.9-0.9-2.1-1.4-3.4-1.5c-0.2,0-0.5-0.1-0.6-0.3l-3.9-3.9l-2.2-1.2     c-1.8-1-3.4-2.4-4.4-4.2l-1.7-2.9L13.7,14.1c-1.5-1.5-3.8-1.5-5.3,0c-1.5,1.5-1.5,3.8,0,5.3l15.2,15.2l2.9,1.7     c1.8,1,3.3,2.6,4.2,4.4L31.9,42.8z"></path></g><g><path d="M35.1,48.5c-0.3,0-0.5-0.1-0.7-0.3c-0.4-0.4-0.4-1,0-1.4l6.7-6.7c0.4-0.4,1-0.4,1.4,0c0.4,0.4,0.4,1,0,1.4l-6.7,6.7     C35.6,48.4,35.3,48.5,35.1,48.5z"></path></g></g><g><g><path d="M45.1,58.5c-0.5,0-1-0.4-1-1c0-0.6,0.4-1,1-1.1c1.5-0.1,2.9-0.7,3.9-1.7c1-1,1.7-2.4,1.7-3.9c0-0.6,0.5-1,1.1-1     c0.6,0,1,0.5,1,1.1c-0.1,2-0.9,3.8-2.3,5.2C49,57.5,47.1,58.4,45.1,58.5C45.1,58.5,45.1,58.5,45.1,58.5z"></path></g><g><path d="M46.2,64.7c-0.5,0-1-0.4-1-1c0-0.6,0.4-1,1-1.1c2.8-0.1,5.5-1.3,7.5-3.3c2-2,3.2-4.6,3.3-7.5c0-0.6,0.5-1,1.1-1     c0.6,0,1,0.5,1,1.1c-0.2,3.3-1.6,6.4-3.9,8.8C52.7,63.1,49.6,64.5,46.2,64.7C46.2,64.7,46.2,64.7,46.2,64.7z"></path></g></g></g></svg>