<svg height='300px' width='300px'  fill="#000000" xmlns="http://www.w3.org/2000/svg" xmlns:xlink="http://www.w3.org/1999/xlink" version="1.1" x="0px" y="0px" viewBox="0 0 100 100" style="enable-background:new 0 0 100 100;" xml:space="preserve"><g><g><path d="M56,75.7c-0.9,0-1.8-0.1-2.8-0.3c-4.6-1.1-8.3-6.1-8.2-10.9c0.1-3.4,1.3-5.2,3-7.6c0.3-0.5,0.7-1,1-1.5    c0.3-0.5,1-0.6,1.5-0.3c0.5,0.3,0.6,1,0.3,1.5c-0.4,0.6-0.7,1.1-1,1.5c-1.7,2.4-2.6,3.7-2.6,6.5c-0.1,3.8,3,8,6.6,8.8    c3.4,0.8,6.7-0.2,8.9-2.8c2.2-2.5,2.8-5.9,1.5-9.1c-3-7.6-1.5-16.1,3.9-21.6c1.2-1.3,2.5-2.4,3.9-3.3c-7.5,1.1-13.8,5.8-17.4,13    c-0.3,0.5-0.9,0.7-1.4,0.5c-0.5-0.3-0.7-0.9-0.5-1.4c4.6-9.4,13.5-14.8,23.7-14.4c0.5,0,0.9,0.4,1,0.8c0.1,0.5-0.2,1-0.6,1.2    c-2.7,1.2-5.1,2.9-7.3,5.1c-4.8,4.9-6.1,12.5-3.4,19.4c1.5,3.8,0.8,8.1-1.9,11.2C62.1,74.4,59.1,75.7,56,75.7z"></path></g><g><g><path d="M99,99.2H13c-0.6,0-1-0.5-1-1V69.6c0-2.9,2.3-5.2,5.2-5.2h22.5c0.6,0,1,0.5,1,1c0,8.4,6.9,15.3,15.3,15.3     c8.4,0,15.3-6.9,15.3-15.3c0-0.6,0.5-1,1-1h22.5c2.9,0,5.2,2.3,5.2,5.2v28.5C100,98.7,99.5,99.2,99,99.2z M14,97.1h83.9V69.6     c0-1.7-1.4-3.1-3.1-3.1H73.3c-0.5,9.1-8.1,16.3-17.4,16.3s-16.8-7.2-17.4-16.3H17.1c-1.7,0-3.1,1.4-3.1,3.1V97.1z"></path></g><g><path d="M16.9,83c-0.6,0-1-0.5-1-1c0-0.6,0.5-1,1-1c2,0,3.5-1.6,3.5-3.5c0-0.6,0.5-1,1-1c0.6,0,1,0.5,1,1     C22.5,80.5,20,83,16.9,83z"></path></g><g><path d="M26,83c-3.1,0-5.6-2.5-5.6-5.6c0-0.6,0.5-1,1-1c0.6,0,1,0.5,1,1c0,2,1.6,3.5,3.5,3.5c2,0,3.5-1.6,3.5-3.5     c0-0.6,0.5-1,1-1c0.6,0,1,0.5,1,1C31.7,80.5,29.1,83,26,83z"></path></g><g><path d="M35.2,83c-3.1,0-5.6-2.5-5.6-5.6c0-0.6,0.5-1,1-1c0.6,0,1,0.5,1,1c0,2,1.6,3.5,3.5,3.5c2,0,3.5-1.6,3.5-3.5     c0-0.6,0.5-1,1-1c0.6,0,1,0.5,1,1C40.8,80.5,38.3,83,35.2,83z"></path></g><g><path d="M95.1,83c-3.1,0-5.6-2.5-5.6-5.6c0-0.6,0.5-1,1-1c0.6,0,1,0.5,1,1c0,2,1.6,3.5,3.5,3.5c0.6,0,1,0.5,1,1     C96.1,82.5,95.6,83,95.1,83z"></path></g><g><path d="M85.9,83c-3.1,0-5.6-2.5-5.6-5.6c0-0.6,0.5-1,1-1c0.6,0,1,0.5,1,1c0,2,1.6,3.5,3.5,3.5c2,0,3.5-1.6,3.5-3.5     c0-0.6,0.5-1,1-1c0.6,0,1,0.5,1,1C91.5,80.5,89,83,85.9,83z"></path></g><g><path d="M76.7,83c-3.1,0-5.6-2.5-5.6-5.6c0-0.6,0.5-1,1-1c0.6,0,1,0.5,1,1c0,2,1.6,3.5,3.5,3.5c2,0,3.5-1.6,3.5-3.5     c0-0.6,0.5-1,1-1c0.6,0,1,0.5,1,1C82.3,80.5,79.8,83,76.7,83z"></path></g></g><g><g><path d="M33.1,47.7c-1.1,0-2.2-0.4-3-1.2L9.7,26c-0.4-0.4-0.4-1.1,0-1.5c0.4-0.4,1.1-0.4,1.5,0L31.6,45c0.8,0.8,2.2,0.8,3,0     l4.8-4.8c0.4-0.4,1.1-0.4,1.5,0c0.4,0.4,0.4,1.1,0,1.5l-4.8,4.8C35.3,47.3,34.2,47.7,33.1,47.7z"></path></g><g><path d="M44,51.4c-1,0-1.9-0.4-2.7-1.1L36.1,45c-0.4-0.4-0.4-1.1,0-1.5c0.4-0.4,1.1-0.4,1.5,0l5.3,5.3c0.6,0.6,1.7,0.6,2.3,0     l2.8-2.8c0.6-0.6,0.6-1.7,0-2.3l-6-6l2.2-2.2c0.8-0.8,0.8-2.2,0-3L23.8,11.9c-0.4-0.4-0.4-1.1,0-1.5c0.4-0.4,1.1-0.4,1.5,0     l20.4,20.4c0.8,0.8,1.2,1.9,1.2,3c0,1.1-0.4,2.2-1.2,3L45,37.6l4.5,4.5c1.5,1.5,1.5,3.8,0,5.3l-2.8,2.8C45.9,51,45,51.4,44,51.4z     "></path></g><g><path d="M56,57.8c-0.3,0-0.5-0.1-0.7-0.3l-8.7-8.7c-0.4-0.4-0.4-1.1,0-1.5c0.4-0.4,1.1-0.4,1.5,0l8.7,8.7c0.4,0.4,0.4,1.1,0,1.5     C56.5,57.7,56.2,57.8,56,57.8z"></path></g><g><path d="M3.6,27.3c-0.3,0-0.5-0.1-0.7-0.3c-0.4-0.4-0.4-1.1,0-1.5L24.7,3.7c0.4-0.4,1.1-0.4,1.5,0c0.4,0.4,0.4,1.1,0,1.5L4.3,27     C4.1,27.2,3.9,27.3,3.6,27.3z"></path></g><g><path d="M24.9,40.9c-0.3,0-0.5-0.1-0.7-0.3c-0.4-0.4-0.4-1.1,0-1.5l4.4-4.4c0.4-0.4,1.1-0.4,1.5,0c0.4,0.4,0.4,1.1,0,1.5     l-4.4,4.4C25.5,40.8,25.2,40.9,24.9,40.9z"></path></g><g><path d="M20.3,36.2c-0.3,0-0.5-0.1-0.7-0.3c-0.4-0.4-0.4-1.1,0-1.5l4.4-4.4c0.4-0.4,1.1-0.4,1.5,0c0.4,0.4,0.4,1.1,0,1.5L21,35.9     C20.8,36.1,20.6,36.2,20.3,36.2z"></path></g><g><path d="M15.7,31.6c-0.3,0-0.5-0.1-0.7-0.3c-0.4-0.4-0.4-1.1,0-1.5l4.4-4.4c0.4-0.4,1.1-0.4,1.5,0c0.4,0.4,0.4,1.1,0,1.5     l-4.4,4.4C16.2,31.5,15.9,31.6,15.7,31.6z"></path></g><g><g><g><path d="M17.5,13.4c-0.3,0-0.5-0.1-0.7-0.3L9,5.3C8.6,4.9,8.6,4.2,9,3.8c0.4-0.4,1.1-0.4,1.5,0l7.8,7.8c0.4,0.4,0.4,1.1,0,1.5       C18.1,13.3,17.8,13.4,17.5,13.4z"></path></g></g><g><path d="M11.5,19.4c-0.3,0-0.5-0.1-0.7-0.3L3,11.3c-0.4-0.4-0.4-1.1,0-1.5c0.4-0.4,1.1-0.4,1.5,0l7.8,7.8c0.4,0.4,0.4,1.1,0,1.5      C12.1,19.3,11.8,19.4,11.5,19.4z"></path></g></g><g><path d="M1,14.3c-0.3,0-0.5-0.1-0.7-0.3c-0.4-0.4-0.4-1.1,0-1.5L11.8,1.1c0.4-0.4,1.1-0.4,1.5,0c0.4,0.4,0.4,1.1,0,1.5L1.8,14     C1.6,14.2,1.3,14.3,1,14.3z"></path></g></g></g></svg>