<svg height='300px' width='300px'  fill="#000000" xmlns="http://www.w3.org/2000/svg" xmlns:xlink="http://www.w3.org/1999/xlink" version="1.1" x="0px" y="0px" viewBox="0 0 100 100" style="enable-background:new 0 0 100 100;" xml:space="preserve"><g><g><path d="M98.8,91.6H1.2c-0.6,0-1.2-0.5-1.2-1.2V58.1c0-3.2,2.6-5.8,5.8-5.8h25.6c0.6,0,1.2,0.5,1.2,1.2c0,9.6,7.8,17.4,17.4,17.4    S67.4,63,67.4,53.4c0-0.6,0.5-1.2,1.2-1.2h25.6c3.2,0,5.8,2.6,5.8,5.8v32.4C100,91.1,99.5,91.6,98.8,91.6z M2.3,89.3h95.4V58.1    c0-2-1.6-3.5-3.5-3.5H69.7C69.1,64.8,60.5,73.1,50,73.1c-10.5,0-19.1-8.2-19.7-18.6H5.8c-2,0-3.5,1.6-3.5,3.5V89.3z"></path></g><g><path d="M16,73.2c-3.5,0-6.4-2.9-6.4-6.4c0-0.6,0.5-1.2,1.2-1.2c0.6,0,1.2,0.5,1.2,1.2c0,2.2,1.8,4.1,4.1,4.1s4.1-1.8,4.1-4.1    c0-0.6,0.5-1.2,1.2-1.2c0.6,0,1.2,0.5,1.2,1.2C22.4,70.4,19.5,73.2,16,73.2z"></path></g><g><path d="M26.4,73.2c-3.5,0-6.4-2.9-6.4-6.4c0-0.6,0.5-1.2,1.2-1.2c0.6,0,1.2,0.5,1.2,1.2c0,2.2,1.8,4.1,4.1,4.1    c2.2,0,4.1-1.8,4.1-4.1c0-0.6,0.5-1.2,1.2-1.2c0.6,0,1.2,0.5,1.2,1.2C32.8,70.4,29.9,73.2,26.4,73.2z"></path></g><g><path d="M94.4,73.2c-3.5,0-6.4-2.9-6.4-6.4c0-0.6,0.5-1.2,1.2-1.2c0.6,0,1.2,0.5,1.2,1.2c0,2.2,1.8,4.1,4.1,4.1    c0.6,0,1.2,0.5,1.2,1.2C95.6,72.7,95.1,73.2,94.4,73.2z"></path></g><g><path d="M84,73.2c-3.5,0-6.4-2.9-6.4-6.4c0-0.6,0.5-1.2,1.2-1.2c0.6,0,1.2,0.5,1.2,1.2c0,2.2,1.8,4.1,4.1,4.1    c2.2,0,4.1-1.8,4.1-4.1c0-0.6,0.5-1.2,1.2-1.2c0.6,0,1.2,0.5,1.2,1.2C90.4,70.4,87.5,73.2,84,73.2z"></path></g><g><path d="M73.6,73.2c-3.5,0-6.4-2.9-6.4-6.4c0-0.6,0.5-1.2,1.2-1.2c0.6,0,1.2,0.5,1.2,1.2c0,2.2,1.8,4.1,4.1,4.1    c2.2,0,4.1-1.8,4.1-4.1c0-0.6,0.5-1.2,1.2-1.2c0.6,0,1.2,0.5,1.2,1.2C79.9,70.4,77.1,73.2,73.6,73.2z"></path></g><g><path d="M50,66c-7,0-12.7-5.7-12.7-12.7c0-6.7,11.3-20.8,11.8-21.4c0.4-0.5,1.4-0.5,1.8,0c0.5,0.6,11.8,14.7,11.8,21.4    C62.7,60.3,57,66,50,66z M50,34.6c-3.6,4.6-10.4,14.3-10.4,18.8c0,5.7,4.7,10.4,10.4,10.4c5.7,0,10.4-4.7,10.4-10.4    C60.4,48.9,53.6,39.2,50,34.6z"></path></g><g><path d="M70.7,35.4c-5.5,0-10-4.5-10-10c0-5.2,8.2-15.5,9.1-16.6c0.4-0.5,1.4-0.5,1.8,0c0.9,1.2,9.1,11.5,9.1,16.6    C80.7,30.9,76.2,35.4,70.7,35.4z M70.7,11.4C67.9,15,63,22.1,63,25.4c0,4.3,3.5,7.7,7.7,7.7s7.7-3.5,7.7-7.7    C78.4,22.1,73.5,15,70.7,11.4z"></path></g><g><path d="M31.6,35.4c-4.6,0-8.3-3.7-8.3-8.3c0-4.2,6.6-12.6,7.4-13.5c0.4-0.5,1.4-0.5,1.8,0c0.8,0.9,7.4,9.3,7.4,13.5    C39.9,31.7,36.2,35.4,31.6,35.4z M31.6,16.2c-2.6,3.4-6,8.6-6,10.9c0,3.3,2.7,6,6,6c3.3,0,6-2.7,6-6    C37.6,24.8,34.2,19.7,31.6,16.2z"></path></g></g></svg>