<?xml version="1.0" encoding="UTF-8"?>
<svg width="11px" height="11px" viewBox="0 0 11 11" version="1.1" xmlns="http://www.w3.org/2000/svg" xmlns:xlink="http://www.w3.org/1999/xlink">
    <!-- Generator: Sketch 59.1 (86144) - https://sketch.com -->
    <title>instagram-logo</title>
    <desc>Created with Sketch.</desc>
    <g id="Page-1" stroke="none" stroke-width="1" fill="none" fill-rule="evenodd">
        <g id="tbs-site" transform="translate(-1059.000000, -10.000000)" fill="#000000" fill-rule="nonzero">
            <g id="hero" transform="translate(0.000000, -0.000000)">
                <g id="header">
                    <g id="sub">
                        <g id="instagram-logo" transform="translate(1051.000000, 2.000000)">
                            <g id="1077093" transform="translate(8.800000, 8.800000)">
                                <path d="M7.35143532,0 L2.72856437,0 C1.22400875,0 0,1.22400875 0,2.72856437 L0,7.35151222 C0,8.85599093 1.22400875,10.0799997 2.72856437,10.0799997 L7.35151222,10.0799997 C8.85599093,10.0799997 10.0799997,8.85599093 10.0799997,7.35151222 L10.0799997,2.72856437 C10.0799997,1.22400875 8.85599093,0 7.35143532,0 Z M5.03999984,7.79617286 C3.52021719,7.79617286 2.28382683,6.5597825 2.28382683,5.03999984 C2.28382683,3.52021719 3.52021719,2.28382683 5.03999984,2.28382683 C6.5597825,2.28382683 7.79617286,3.52021719 7.79617286,5.03999984 C7.79617286,6.5597825 6.5597825,7.79617286 5.03999984,7.79617286 L5.03999984,7.79617286 Z M7.86207983,2.93382192 C7.41295875,2.93382192 7.04766334,2.56852654 7.04766334,2.11940546 C7.04766334,1.67028438 7.41295875,1.30491207 7.86207983,1.30491207 C8.31120091,1.30491207 8.67657322,1.67028438 8.67657322,2.11940546 C8.67657322,2.56852654 8.31120091,2.93382192 7.86207983,2.93382192 Z" id="Shape"></path>
                                <path d="M5.03999984,2.87475943 C3.84613758,2.87475943 2.87475943,3.84606068 2.87475943,5.03999984 C2.87475943,6.23386211 3.84613758,7.20524026 5.03999984,7.20524026 C6.23393901,7.20524026 7.20524026,6.23386211 7.20524026,5.03999984 C7.20524026,3.84606068 6.23393901,2.87475943 5.03999984,2.87475943 Z" id="Path"></path>
                                <path d="M7.86207983,1.89592157 C7.73887916,1.89592157 7.63859596,1.99620477 7.63859596,2.11940546 C7.63859596,2.24260613 7.73887916,2.34288933 7.86207983,2.34288933 C7.98535742,2.34288933 8.08564062,2.24268303 8.08564062,2.11940546 C8.08564062,1.99612787 7.98535742,1.89592157 7.86207983,1.89592157 Z" id="Path"></path>
                            </g>
                        </g>
                    </g>
                </g>
            </g>
        </g>
    </g>
</svg>