<svg version="1" xmlns="http://www.w3.org/2000/svg" width="658.667" height="658.667" viewBox="0 0 494.000000 494.000000"><path d="M234 32.6c-23.7 4-42.7 12.9-58.5 27.6-2.3 2.2-5.1 3.8-6.5 3.9-32.9 1-60.3 14.1-80.6 38.4-15.6 18.7-23.5 40.4-24.4 67 0 1.1-1.7 3.8-3.8 6-12.5 13.4-21.2 29.9-25.8 49-2.3 9.5-2.7 30.7-.8 40.8 1.8 9.5 6.4 22.9 10.6 30.5 2.8 5.3 10.2 16.4 13 19.4.7.8 2.5 2.8 4 4.4 2.4 2.6 2.9 4.1 3.4 11.4 2.5 37.4 23 69.2 55.7 86.5 14 7.4 32.4 12.3 47.7 12.5 2.7 0 4.6 1 8.5 4.6 12.7 11.8 30.5 21 48.5 25.1 10.7 2.5 30.9 2.6 41.8.4 10.2-2.1 21.2-6 28.2-9.9 2.5-1.4 5.4-3 6.5-3.6 3.2-1.8 7.8-4.9 10.4-7.1 3.9-3.3 4.6-3.9 7.7-6.8 2.6-2.4 4.1-2.8 10.5-3.2 15.6-.9 26.6-3.7 40.4-10.4 33.6-16.4 54.9-47.3 58.9-85.6.3-2.2.5-5.6.5-7.5.1-2.5 1.1-4.5 3.4-7 18.5-20 27.5-42.1 28.2-69 .8-29.2-8.5-53.8-28.1-75-3-3.2-3.4-4.2-3.9-11.5-2.2-32.2-16.5-58.9-41.8-78.3-10.3-7.9-29-16.5-40.8-18.7-1.3-.3-3.5-.7-4.9-1-1.4-.3-6.2-.7-10.7-1l-8.3-.4-6.6-5.7c-14.2-12-28.3-19.4-44.9-23.5-7.6-1.9-31.1-3.3-37.5-2.3zm35.9 12.3c4.6 1.2 12.2 3.9 16.8 6.1 8.5 4 21.3 12.4 21.3 13.9 0 .5-2 1.2-4.5 1.5-15.3 2.3-36.6 13.3-50.2 26l-6.3 5.8-6.6-6.1c-8-7.3-14.8-11.9-25.2-17.1-7.4-3.7-23.4-9-27.3-9-3.3 0-2.1-1.8 4.4-6.3 11.5-8.2 27.7-15 39-16.3 2.8-.3 5.4-.7 5.6-1 1.2-1.2 25.4.6 33 2.5zM158.4 81c-9.9 15.4-15 31.3-16.1 51-.3 5.2-.6 9.6-.7 9.6 0 .1-4.8.4-10.6.8-18.4 1-35.3 6.4-50.6 16.2-2.9 1.9-5.5 3.4-5.7 3.4-.6 0 2.1-14.7 3.8-20.6 5.2-17.8 18-36 34-48.2 11.6-8.9 29.9-16.4 43.5-17.8 3-.4 5.7-.8 5.9-1 1.4-1.3.5.4-3.5 6.6zm40-2c7.6 2.4 19.7 8.4 25.5 12.7 6.3 4.7 14.9 12.4 15.5 13.9.3.8-1.1 4-3.1 7.1-7.9 12.5-14.3 30.5-15.8 44.8-.8 7.7-.7 21.8.2 24.2.3 1-2.9-1.9-7.3-6.3-12.3-12.8-26.2-22-40.2-26.9-6.7-2.3-17.4-5.1-20.6-5.4-1.5-.2.2-21.1 2.4-29.6 3.9-14.7 15.9-36.4 21.3-38.4 2.4-.9 12.2.8 22.1 3.9zm126.2 3.6c10 13.9 15.9 31.4 17 50l.7 10.1-5.4 1.2c-22.8 5.2-38.5 13.7-54.4 29.6l-9 9-.1-15c-.1-21-3.9-35.1-14.4-52.5-5.3-8.8-5.3-9.6-.7-13.7 18.5-16 34.6-23.9 52.9-25.9 2.9-.3 5.5-.8 5.7-1 .8-.7 3.2 1.9 7.7 8.2zm20.1-6c37.7 7.8 68.3 40.1 73.8 77.9.3 2.2.8 4.5 1 5.2.8 2.3-1.2 2.2-4.8-.3-11.5-7.7-23.9-12.8-39.7-16-1.4-.2-7-.7-12.5-1.1-5.5-.3-10.1-.6-10.1-.7-.1 0-.4-4.6-.7-10.1-.9-17.7-6.3-35-15.1-49-1.8-2.8-3.6-5.6-4-6.3-1-1.7 2.7-1.6 12.1.4zm-94 44.1c5 8.3 9.1 18.8 11.9 30.4.4 1.3.8 8.2 1 15.2.4 13.9-.9 22.7-5.1 35-2.5 7.1-10.1 21.7-11.4 21.7-.4 0-2.1-2.4-3.8-5.3-13.5-22.2-16.9-51.3-9.1-76.7 1.9-6.2 8.8-21.1 11-23.8 1.7-2 2.5-1.5 5.5 3.5zM143.5 154c.2 5.6 4.1 18.1 8.8 27.9 5.7 12.2 11.3 19.9 22.4 30.8 5.8 5.7 7.7 8 6.1 7.7-3.9-.8-20.8-.4-27.7.6-14.1 2.3-28.5 7.7-40.9 15.6-2.9 1.9-5.4 3.4-5.7 3.4-2.3 0-15-15.6-20.1-24.6-5.6-10.1-9.6-21.7-11-32.4-.3-2.5-.8-4.7-1-4.9-.9-1 2.3-4.5 8-8.6 11.2-8 27-14.4 39.9-16.1 2.3-.4 4.3-.8 4.5-.9.2-.2 4-.2 8.5-.2 6.5.2 8.2.5 8.2 1.7zm229.8-.4c9.5 1.6 18.5 4.7 27.7 9.5 8 4.1 19.4 12.5 18.6 13.7-.2.4-.7 3.3-1 6.4-.3 3.2-1.1 6.9-1.6 8.3-.5 1.4-.8 2.5-.6 2.5.2 0-.8 3.3-2.4 7.4-4.6 12.5-10.2 21.4-21.3 34.3-4 4.5-5.1 4.6-10.9 1-9.6-6.2-24.6-12.7-32.6-14.2-13.1-2.5-29.5-3.4-36-2.1-1.7.4 0-1.8 6.1-7.7 12.4-12.1 19.6-22.8 25.5-37.7 2.9-7.4 5.7-17.5 6.1-22.3.1-1.2 13.9-.6 22.4.9zm-207.9 2.9c25.9 8.5 46.1 26.2 57.5 50.7 3.6 7.6 7.1 18.5 7.1 22.1 0 1.2-1.3 1.1-7.9-.8-27.2-7.6-49.2-26.3-61-51.7-3.5-7.3-7.1-18.5-7.1-21.7 0-1.7 3.1-1.3 11.4 1.4zm174.6-1.4c0 6.8-8.4 26.5-15.7 36.7-13.4 18.9-35.9 33.9-56.5 37.7-4.7.9-4.8-.1-1.3-10.9 8.4-25.9 26.3-46.2 50.7-57.5 11.7-5.6 22.8-8.4 22.8-6zM71 206.3c3.9 10.6 12.5 24.5 20.9 33.9l6.4 7-4 4.1c-2.2 2.3-4.9 5.3-5.9 6.6-1.1 1.3-2.4 2.8-2.9 3.5-.6.6-3 4.2-5.5 8.1-5.5 8.8-10.4 20.7-12.7 30.7-1 4.3-2.1 7.8-2.5 7.8-1.5 0-10-13.1-13.8-21.3-14.5-30.8-10.7-68.2 9.6-95.7l4.8-6.5 1.2 6.5c.7 3.6 2.7 10.4 4.4 15.3zm363.5-13.8c10.9 15.3 16.5 32.5 17 52.5.4 15.4-2.3 28.5-8.4 41.6-4 8.4-12.4 21.4-14 21.4-.4 0-1.2-2.6-1.8-5.8-3-15.7-13-34.8-25.2-48.3l-6.2-6.9 6.6-7.3c7-7.7 14.9-20 18.9-29.6 3-7 6.6-19.6 6.6-22.9 0-3.2 1.2-2.2 6.5 5.3zm-242 40.3c12.3 3.3 30.5 11.9 30.5 14.3 0 1-13.7 8.5-19.1 10.5-13.7 5-19.6 5.9-36.9 5.8-12.4-.1-15.7-.5-23-2.7-8.7-2.6-18.5-6.9-25.3-11.1l-3.9-2.3 3-2.2c4.2-3 15.7-8.5 21.8-10.5 11.1-3.6 17.3-4.4 32.4-4.1 9.4.2 15.6.9 20.5 2.3zm150.4-1.4c11.1 2.5 22.5 7 31 12.4l5.4 3.3-5.4 3.3c-15.6 9.3-27.9 12.8-46.4 13.2-15 .3-21.8-.7-35-5.2-7.1-2.5-21.5-10.2-21.5-11.5 0-1 11.3-7.2 18.5-10.1 5.3-2.2 14.9-4.8 22.5-6.2 3.1-.6 27.6.1 30.9.8zm-228 27.6c16.9 10.1 33.6 14.7 54 14.9 6.9 0 12.7.1 12.9.1.1 0-3.5 3.7-8.1 8.3-8.8 8.5-17.9 21.5-22.4 31.4-3.5 8-7.7 22.1-8.2 27.7-.2 1.5-19.9-.2-29.1-2.4-4.7-1.1-13-4.3-18.5-7-9.7-4.8-22-13.4-21.1-14.8.2-.4.7-3.2 1.1-6.2 1.5-12.7 8.1-29.5 16-40.6 3.6-5.1 13.7-16.4 14.6-16.4.3 0 4.3 2.2 8.8 5zm274.7-3.6c3.6 2.6 13.3 15.2 17.9 23.2 5.2 9.1 8.9 19.7 10.8 30.9 1.6 9.3 1.6 9.4-7.3 15.5-15.2 10.4-34.1 16.5-52.2 16.9l-7.6.2-1.2-5.7c-4.3-20.6-14.5-39.1-30.2-54.6-6.1-6.1-8.1-8.5-6.6-8.2 5 1 21.1.4 29.8-1.1 14-2.4 31.5-9.5 41-16.6 3-2.2 3.1-2.2 5.6-.5zM230 265.9c0 3-4.9 17-8.5 24.1-11.7 23.4-34.2 41.6-60.3 48.8l-7.4 2.1.6-3.7c.3-2 1.7-7.2 3.1-11.5 8-23.6 26.2-43.7 49.7-54.6 7.8-3.7 17.2-6.8 21.1-7 1-.1 1.7.6 1.7 1.8zm42.4-.3c13.5 3.4 34.5 15.9 43.1 25.5 7 8 13.1 17 17.1 25.4 4.2 8.9 8.2 22 7.1 23.2-1.1 1.1-14.1-2.8-22.3-6.6-21.2-9.9-36.6-25.4-46.4-46.4-3.4-7.2-7-18.4-7-21.6 0-1.5 1.1-1.4 8.4.5zm-20 13.6c8.7 16.3 11.6 28.7 11.2 48.3-.3 11.6-.8 15.5-3 22.8-2.5 8.4-6.9 18.4-11.3 25.5l-2.1 3.4-2.9-4.4c-4.4-6.5-7.9-14.6-10.9-24.4-2.1-7.2-2.7-11.5-3-22.4-.4-14.3.7-22.1 4.6-34 2.4-7.3 10.6-23 12-23 .5 0 2.9 3.7 5.4 8.2zm-32 34c-.5 2.7-.5 19.1 0 22.8.2 1.4.7 4.5 1.1 7 1.6 11.5 7.8 27.3 14.9 38.4 4.5 7 4.3 7.3-6.2 16-13.7 11.2-27.6 17.5-45.8 21l-7.9 1.4-3.5-3.8c-7.5-8.2-15.8-25.2-18.5-38-.9-4.1-1.9-11.8-2.2-17.1l-.6-9.6 7.7-1.7c20.6-4.6 38.8-15 53.3-30.3 4.3-4.5 7.9-8.3 8-8.3.1 0 0 1-.3 2.2zm72.6 17c11.3 8.8 25.1 15.2 40.1 18.9l9 2.2-.2 7.6c-.4 14.5-4.2 28.9-11 42.1-4.1 7.9-12.5 19.4-13.7 18.6-.4-.2-3.4-.7-6.7-1.1-14.7-1.7-33-9.9-46.7-21.1-10.4-8.6-10.6-9.1-6.5-15.6 6.2-9.6 12.8-24.8 14.2-32.6.2-1.5.9-5 1.4-7.7.5-2.8.9-10.7.8-17.6l-.2-12.7 7.5 7.8c4.1 4.2 9.5 9.3 12 11.2zm-210.5 6.4c14 8.8 30.3 13.9 48.5 15 5.8.4 10.6.7 10.6.8.1 0 .5 4.6.8 10.1 1.1 19.8 6.9 37 17.9 53.9.9 1.4 1.7 2.7 1.7 2.9 0 .6-14.8-2.1-20.9-3.9-23.6-6.8-47.1-27.3-57.9-50.4-4.3-9.2-9.9-30.9-8.4-32.4.5-.6.5-.6 7.7 4zm335.6 4.9c-3.2 18.5-11.5 34.6-25.2 49-10.9 11.5-27.8 21.8-41.8 25.5-6 1.6-19.1 3.8-19.1 3.2 0-.2 2-3.6 4.4-7.6 9-14.4 14.3-31.4 15.3-49.1.3-5.5.6-10.1.7-10.1 0-.1 4.8-.4 10.6-.8 5.8-.3 13.4-1.3 17-2.1 9.9-2.3 23.7-8 31.5-13 8-5.1 8.3-4.9 6.6 5zM254 402.2c13.6 12.4 31.6 21.6 48.7 25.1l6.8 1.4-6.5 4.8c-8.7 6.4-22.6 12.9-33.6 15.7-12.7 3.2-33.3 3.1-45.4-.1-10.6-2.8-23.2-8.7-31.6-14.6-6.6-4.7-7.8-6.5-4.5-6.5 3.4 0 18.9-4.9 25.8-8.2 9.5-4.4 18.9-10.8 26.4-17.8 3.5-3.2 6.5-5.9 6.7-6 .2 0 3.4 2.8 7.2 6.2z"/></svg>