<?xml version="1.0" encoding="UTF-8"?>
<svg width="15px" height="12px" viewBox="0 0 15 12" version="1.1" xmlns="http://www.w3.org/2000/svg" xmlns:xlink="http://www.w3.org/1999/xlink">
    <!-- Generator: Sketch 59.1 (86144) - https://sketch.com -->
    <title>twitter-logo</title>
    <desc>Created with Sketch.</desc>
    <g id="Page-1" stroke="none" stroke-width="1" fill="none" fill-rule="evenodd">
        <g id="tbs-site" transform="translate(-1083.000000, -10.000000)" fill="#000000" fill-rule="nonzero">
            <g id="hero" transform="translate(0.000000, -0.000000)">
                <g id="header">
                    <g id="sub">
                        <g id="twitter-logo" transform="translate(1091.000000, 16.000000) rotate(-360.000000) translate(-1091.000000, -16.000000) translate(1077.000000, 2.000000)">
                            <path d="M19.1684551,13.5023236 C19.9772136,13.4319618 20.5258048,13.0442483 20.7369251,12.5181767 C20.4451868,12.7071615 19.5395727,12.9131982 19.039426,12.7169761 C19.0149192,12.5930575 18.9875332,12.4753524 18.9606493,12.369086 C18.5795549,10.8934307 17.2747341,9.70458861 15.9075414,9.84820712 C16.0181569,9.80111098 16.1303459,9.75726285 16.2422001,9.71789839 C16.3926894,9.66105823 17.275638,9.50956683 17.1365986,9.18091771 C17.0194212,8.89184488 15.9406524,9.39938165 15.7375337,9.46571871 C16.0056692,9.35938171 16.449102,9.17646935 16.4966091,8.8515625 C16.0858185,8.91097989 15.6825608,9.115781 15.3709693,9.41357404 C15.4834596,9.28587784 15.5687983,9.13025583 15.5869105,8.96277152 C14.4912682,9.70088165 13.8512451,11.1889642 13.3332875,12.6324572 C12.9265814,12.216818 12.5661102,11.8895104 12.242734,11.7077631 C11.3355464,11.1947541 10.2508517,10.6595034 8.54812993,9.99295536 C8.4958688,10.5870233 8.82674435,11.3769251 9.78016679,11.90222 C9.57359974,11.8730585 9.19585322,11.9381246 8.89373636,12.0144175 C9.01677265,12.6949814 9.41859076,13.2556867 10.506399,13.5268249 C10.0092654,13.5614232 9.75234552,13.680717 9.51949725,13.9378393 C9.74591751,14.411166 10.2984258,14.9682349 11.2923246,14.8538838 C10.1873081,15.3561249 10.8417607,16.2862207 11.7409133,16.1475095 C10.2070274,17.818222 7.78868633,17.6954331 6.4,16.2980476 C10.0257707,21.5079959 17.9073582,19.3792082 19.0819112,14.3610337 C19.9619136,14.3689419 20.4792352,14.0395867 20.8,13.6764804 C20.29299,13.7672129 19.5581202,13.6734442 19.1684551,13.5023236 Z" id="Twitter__x28_alt_x29_"></path>
                        </g>
                    </g>
                </g>
            </g>
        </g>
    </g>
</svg>