<svg height='300px' width='300px'  fill="#000000" xmlns="http://www.w3.org/2000/svg" xmlns:xlink="http://www.w3.org/1999/xlink" version="1.1" x="0px" y="0px" viewBox="0 0 100 100" style="enable-background:new 0 0 100 100;" xml:space="preserve"><g><g><path d="M92.8,80.4c-0.6,0-1.1-0.5-1.1-1.1V47.7c0-1.3-1.1-2.4-2.4-2.4h-7.4c-0.6,0-1.1-0.5-1.1-1.1c0-0.6,0.5-1.1,1.1-1.1h7.4    c2.6,0,4.7,2.1,4.7,4.7v31.6C94,79.9,93.5,80.4,92.8,80.4z"></path></g><g><path d="M71,80.4c-0.6,0-1.1-0.5-1.1-1.1V47.7c0-2.6,2.1-4.7,4.7-4.7h1.1v-7c0-2.3,1.8-4.1,4.1-4.1h4.4c2.3,0,4.1,1.8,4.1,4.1v8.1    c0,0.6-0.5,1.1-1.1,1.1s-1.1-0.5-1.1-1.1V36c0-1-0.8-1.8-1.8-1.8h-4.4c-1,0-1.8,0.8-1.8,1.8v9.3h-3.4c-1.3,0-2.4,1.1-2.4,2.4v31.6    C72.2,79.9,71.7,80.4,71,80.4z"></path></g><g><path d="M81.9,34.2c-0.6,0-1.1-0.5-1.1-1.1V19.7c0-0.6,0.5-1.1,1.1-1.1c0.6,0,1.1,0.5,1.1,1.1v13.4C83.1,33.7,82.6,34.2,81.9,34.2    z"></path></g><g><path d="M98.9,84.9H65c-0.6,0-1.1-0.5-1.1-1.1c0-0.6,0.5-1.1,1.1-1.1h33.9c0.6,0,1.1,0.5,1.1,1.1C100,84.4,99.5,84.9,98.9,84.9z"></path></g><g><path d="M92.8,57.9H86c-0.6,0-1.1-0.5-1.1-1.1c0-0.6,0.5-1.1,1.1-1.1h6.8c0.6,0,1.1,0.5,1.1,1.1C94,57.4,93.5,57.9,92.8,57.9z"></path></g><g><path d="M92.8,65.1H86c-0.6,0-1.1-0.5-1.1-1.1c0-0.6,0.5-1.1,1.1-1.1h6.8c0.6,0,1.1,0.5,1.1,1.1C94,64.6,93.5,65.1,92.8,65.1z"></path></g><g><path d="M92.8,72.3H86c-0.6,0-1.1-0.5-1.1-1.1c0-0.6,0.5-1.1,1.1-1.1h6.8c0.6,0,1.1,0.5,1.1,1.1C94,71.8,93.5,72.3,92.8,72.3z"></path></g><g><path d="M77.3,97c-0.6,0-1.1-0.5-1.1-1.1v-12c0-0.6,0.5-1.1,1.1-1.1c0.6,0,1.1,0.5,1.1,1.1v12C78.4,96.4,77.9,97,77.3,97z"></path></g><g><path d="M86.6,97c-0.6,0-1.1-0.5-1.1-1.1v-12c0-0.6,0.5-1.1,1.1-1.1c0.6,0,1.1,0.5,1.1,1.1v12C87.7,96.4,87.2,97,86.6,97z"></path></g><g><path d="M90.8,97H73.1c-0.6,0-1.1-0.5-1.1-1.1c0-0.6,0.5-1.1,1.1-1.1h17.7c0.6,0,1.1,0.5,1.1,1.1C91.9,96.4,91.4,97,90.8,97z"></path></g><g><path d="M1.1,33.2c-0.4,0-0.7-0.2-1-0.5c-0.4-0.5-0.2-1.2,0.3-1.6c0.1,0,7.7-5.2,15.1-16.8c0.2-0.4,5.9-9.5,15.1-11    c4.9-0.8,9.8,0.6,14.6,4.3c4.8-3.7,9.7-5.1,14.6-4.3C69.1,4.8,74.8,14,75,14.3c1,1.6,2.1,3.2,3.3,4.7c0.4,0.5,0.3,1.2-0.2,1.6    c-0.5,0.4-1.2,0.3-1.6-0.2c-1.2-1.5-2.3-3.2-3.4-4.9c-0.1-0.1-5.4-8.6-13.6-10C55,4.8,50.5,6.2,46,9.9l-0.7,0.6l-0.7-0.6    c-4.5-3.7-9-5.1-13.5-4.4c-8.2,1.4-13.5,9.9-13.6,10C9.8,27.6,2.1,32.8,1.8,33C1.6,33.2,1.4,33.2,1.1,33.2z"></path></g><g><path d="M7.3,33.8c-3.6,0-6.1-0.6-6.4-0.6c-0.6-0.1-1-0.8-0.9-1.4c0.1-0.6,0.7-1,1.4-0.9c0.1,0,15,3.3,24-6.7    c0.1-0.1,8.4-9.1,19.9-4.1c11.5-5,19.8,4,19.9,4.1c2.2,2.4,4.8,4.2,7.9,5.4c0.6,0.2,0.9,0.9,0.6,1.5c-0.2,0.6-0.9,0.9-1.5,0.6    c-3.4-1.4-6.4-3.4-8.8-6.1c-0.3-0.3-7.5-8.1-17.7-3.4l-0.5,0.2l-0.5-0.2c-10.3-4.8-17.6,3.3-17.7,3.4    C21.1,32.5,12.9,33.8,7.3,33.8z"></path></g><g><path d="M45.3,31.5c-8.2,0-16.4-1.1-21.7-3.4c-0.6-0.2-0.9-0.9-0.6-1.5c0.2-0.6,0.9-0.9,1.5-0.6c10.1,4.3,31.5,4.3,41.6,0    c0.6-0.2,1.3,0,1.5,0.6c0.2,0.6,0,1.3-0.6,1.5C61.7,30.4,53.5,31.5,45.3,31.5z"></path></g><g><path d="M45.4,63.1c-6.6,0-12.9-1.4-17.8-3.5c-7.8-3.4-11.4-8-15.9-13.9c-2.9-3.8-6.2-8-11.3-12.8c-0.5-0.4-0.5-1.2-0.1-1.6    c0.4-0.5,1.2-0.5,1.6-0.1c5.3,4.9,8.6,9.2,11.6,13c4.3,5.6,7.7,10,15,13.2c9.9,4.3,25.2,5.3,37.3-2.1c0.5-0.3,1.2-0.2,1.6,0.4    c0.3,0.5,0.2,1.2-0.4,1.6C60.3,61.4,52.7,63.1,45.4,63.1z"></path></g><g><path d="M45.3,44.5c-16.2,0-22.6-3.6-28.9-7.1c-2.3-1.3-4.6-2.6-7.5-3.8c-0.6-0.2-0.9-0.9-0.6-1.5c0.2-0.6,0.9-0.9,1.5-0.6    c3,1.2,5.4,2.6,7.7,3.9c6.2,3.5,12.1,6.8,27.7,6.8c12.8,0,19.1-2.3,24-4.8c0.6-0.3,1.3-0.1,1.5,0.5c0.3,0.6,0.1,1.3-0.5,1.5    C65.2,42.1,58.6,44.5,45.3,44.5z"></path></g></g></svg>