<svg height='300px' width='300px'  fill="#000000" xmlns="http://www.w3.org/2000/svg" xmlns:xlink="http://www.w3.org/1999/xlink" version="1.1" x="0px" y="0px" viewBox="0 0 100 100" style="enable-background:new 0 0 100 100;" xml:space="preserve"><g><g><path d="M1.2,32.8c-0.4,0-0.7-0.2-1-0.5C-0.2,31.7,0,31,0.5,30.6c0.1-0.1,7.8-5.3,15.4-17.1c0.2-0.4,6-9.7,15.4-11.3    c5-0.9,10,0.6,14.9,4.4c4.9-3.7,9.9-5.2,14.9-4.4c9.4,1.6,15.2,10.9,15.4,11.3c1,1.6,2.2,3.3,3.3,4.8c0.4,0.5,0.3,1.3-0.2,1.6    c-0.5,0.4-1.3,0.3-1.6-0.2c-1.2-1.6-2.3-3.2-3.4-4.9C74.4,14.7,69,6,60.6,4.5C56.1,3.8,51.5,5.3,46.9,9l-0.7,0.6L45.4,9    c-4.6-3.7-9.2-5.2-13.7-4.4C23.4,6,17.9,14.7,17.9,14.7C10,27,2.2,32.4,1.8,32.6C1.6,32.7,1.4,32.8,1.2,32.8z"></path></g><g><path d="M7.4,33.4c-3.7,0-6.3-0.6-6.5-0.6c-0.6-0.1-1-0.8-0.9-1.4c0.1-0.6,0.8-1,1.4-0.9c0.2,0,15.3,3.3,24.5-6.9    c0.1-0.1,8.5-9.3,20.3-4.2c11.8-5.1,20.2,4.1,20.3,4.2c2.2,2.4,4.9,4.3,8.1,5.6c0.6,0.2,0.9,0.9,0.7,1.5c-0.2,0.6-0.9,0.9-1.5,0.7    c-3.5-1.4-6.5-3.5-9-6.2c-0.3-0.3-7.6-8.3-18.1-3.4L46.2,22l-0.5-0.2c-10.4-4.8-17.8,3.1-18.1,3.4C21.5,32,13.1,33.4,7.4,33.4z"></path></g><g><path d="M46.2,31.1c-8.4,0-16.7-1.1-22.1-3.4c-0.6-0.3-0.9-0.9-0.6-1.5c0.3-0.6,0.9-0.9,1.5-0.6c10.3,4.4,32.1,4.4,42.4,0    c0.6-0.3,1.3,0,1.5,0.6c0.3,0.6,0,1.3-0.6,1.5C62.9,29.9,54.5,31.1,46.2,31.1z"></path></g><g><path d="M46.3,63.2c-6.7,0-13.1-1.4-18.2-3.6c-8-3.5-11.6-8.2-16.2-14.1c-3-3.8-6.3-8.2-11.6-13c-0.5-0.4-0.5-1.2-0.1-1.7    c0.4-0.5,1.2-0.5,1.7-0.1c5.4,4.9,8.8,9.4,11.8,13.3c4.4,5.7,7.9,10.2,15.3,13.4c10.1,4.4,25.7,5.4,38-2.1    c0.5-0.3,1.3-0.2,1.6,0.4c0.3,0.5,0.2,1.3-0.4,1.6C61.5,61.5,53.7,63.2,46.3,63.2z"></path></g><g><path d="M46.2,44.3c-16.5,0-23.1-3.7-29.4-7.3c-2.3-1.3-4.7-2.7-7.6-3.8c-0.6-0.2-0.9-0.9-0.6-1.5c0.2-0.6,0.9-0.9,1.5-0.6    c3,1.2,5.5,2.6,7.9,4c6.3,3.6,12.3,7,28.3,7c13.1,0,19.5-2.3,24.4-4.9c0.6-0.3,1.3-0.1,1.6,0.5c0.3,0.6,0.1,1.3-0.5,1.6    C66.5,41.9,59.8,44.3,46.2,44.3z"></path></g><g><g><path d="M93.7,98H77.1c-3.5,0-6.3-2.8-6.3-6.3V64.7c0-0.6,0.5-1.2,1.2-1.2h26.9c0.6,0,1.2,0.5,1.2,1.2v26.9     C100,95.2,97.2,98,93.7,98z M73.1,65.9v25.7c0,2.2,1.8,4,4,4h16.6c2.2,0,4-1.8,4-4V65.9H73.1z"></path></g><g><path d="M95.1,65.9c-0.6,0-1.2-0.5-1.2-1.2v-22c0-0.6-0.5-1.1-1.1-1.1h-1.1c-0.6,0-1.2-0.5-1.2-1.2V30c0-1.3-0.4-2.6-1.1-3.8     L87,22.5c-0.4-0.6-1-0.9-1.6-0.9c-0.7,0-1.3,0.3-1.6,0.9l-2.4,3.7c-0.7,1.1-1.1,2.4-1.1,3.8v10.5c0,0.6-0.5,1.2-1.2,1.2     c-0.6,0-1.2-0.5-1.2-1.2V30c0-1.8,0.5-3.5,1.5-5l2.4-3.7c0.8-1.2,2.1-2,3.6-2c1.5,0,2.8,0.7,3.6,2l2.4,3.7c1,1.5,1.5,3.3,1.5,5     v9.3c1.9,0,3.4,1.6,3.4,3.5v22C96.3,65.4,95.8,65.9,95.1,65.9z"></path></g><g><path d="M74.8,65.9c-0.6,0-1.2-0.5-1.2-1.2v-22c0-1.9,1.6-3.5,3.5-3.5H83c0.6,0,1.2,0.5,1.2,1.2c0,0.6-0.5,1.2-1.2,1.2h-5.9     c-0.6,0-1.1,0.5-1.1,1.1v22C76,65.4,75.5,65.9,74.8,65.9z"></path></g></g></g></svg>