<svg height='300px' width='300px'  fill="#000000" xmlns="http://www.w3.org/2000/svg" xmlns:xlink="http://www.w3.org/1999/xlink" version="1.1" x="0px" y="0px" viewBox="0 0 100 100" style="enable-background:new 0 0 100 100;" xml:space="preserve"><g><g><g><path d="M65.7,26.4c-0.3,0-0.5-0.1-0.7-0.3l-5.5-5.5c-0.4-0.4-0.4-1.1,0-1.5c0.4-0.4,1.1-0.4,1.5,0l5.5,5.5     c0.4,0.4,0.4,1.1,0,1.5C66.2,26.3,66,26.4,65.7,26.4z"></path></g><g><path d="M75.6,34.4c-3.3,0-6.6-1.2-9.4-3.5c-0.4-0.4-0.7-0.9-0.7-1.5c0-0.6,0.2-1.1,0.6-1.5l15.6-15.6c0.4-0.4,0.9-0.6,1.5-0.6     c0.6,0,1.1,0.3,1.5,0.7c4.7,5.5,4.7,13.5-0.1,18.3C82.2,33.2,79,34.4,75.6,34.4z M83.1,13.8L67.6,29.4c4.7,4,11.5,4,15.5,0     C87.1,25.3,87.1,18.5,83.1,13.8z M82.4,13.1L82.4,13.1L82.4,13.1z"></path></g><g><path d="M69,23c-0.3,0-0.5-0.1-0.7-0.3l-5.5-5.5c-0.4-0.4-0.4-1.1,0-1.5c0.4-0.4,1.1-0.4,1.5,0l5.5,5.5c0.4,0.4,0.4,1.1,0,1.5     C69.6,22.9,69.3,23,69,23z"></path></g><g><path d="M72.4,19.6c-0.3,0-0.5-0.1-0.7-0.3l-5.5-5.5c-0.4-0.4-0.4-1.1,0-1.5c0.4-0.4,1.1-0.4,1.5,0l5.5,5.5     c0.4,0.4,0.4,1.1,0,1.5C72.9,19.5,72.7,19.6,72.4,19.6z"></path></g><g><path d="M75.8,16.3c-0.3,0-0.5-0.1-0.7-0.3l-5.5-5.5c-0.4-0.4-0.4-1.1,0-1.5c0.4-0.4,1.1-0.4,1.5,0l5.5,5.5     c0.4,0.4,0.4,1.1,0,1.5C76.3,16.2,76,16.3,75.8,16.3z"></path></g><g><path d="M79.1,12.9c-0.3,0-0.5-0.1-0.7-0.3l-5.5-5.5c-0.4-0.4-0.4-1.1,0-1.5c0.4-0.4,1.1-0.4,1.5,0l5.5,5.5     c0.4,0.4,0.4,1.1,0,1.5C79.7,12.8,79.4,12.9,79.1,12.9z"></path></g><g><path d="M98.3,45.5c-0.3,0-0.5-0.1-0.7-0.3L83.1,30.8c-0.4-0.4-0.4-1.1,0-1.5c0.4-0.4,1.1-0.4,1.5,0L99,43.8     c0.4,0.4,0.4,1.1,0,1.5C98.8,45.4,98.6,45.5,98.3,45.5z"></path></g></g><g><g><path d="M94.9,71.2c-0.3,0-0.6-0.1-0.8-0.3c-0.4-0.4-0.3-1.1,0.1-1.5c1.3-1.2,2.3-2.3,2.9-3.1c-12.8-2.6-14.7-16.4-16.4-28.6     l0-0.3c-0.1-0.6,0.3-1.1,0.9-1.2c0.6-0.1,1.1,0.3,1.2,0.9l0,0.3C84.6,50,86.3,63,99.1,64.5c0.3,0,0.6,0.3,0.8,0.6     c0.2,0.3,0.1,0.7,0,1c-0.1,0.1-1.4,2.4-4.2,4.9C95.4,71.2,95.2,71.2,94.9,71.2z"></path></g><g><path d="M20.3,77C6.7,77,0.2,66.2,0.1,66.1c-0.2-0.3-0.2-0.7,0-1c0.2-0.3,0.5-0.5,0.8-0.6C13.6,63,15.2,50.8,17,37.9     c0.8-6.1,1.7-12.4,3.9-17.3C24.1,13.4,30.3,7.8,38.4,5c9.1-3.1,19.5-2.4,27.8,2c0.5,0.3,0.7,0.9,0.4,1.4     c-0.3,0.5-0.9,0.7-1.4,0.4C57.4,4.7,47.6,4,39,7c-7.5,2.6-13.3,7.7-16.3,14.5C20.7,26.1,19.9,32,19,38.2     c-1.7,12.6-3.5,25.6-16.2,28.1c2.3,3.1,9.3,10.4,21.8,8.3c0.6-0.1,1.1,0.3,1.2,0.8c0.1,0.6-0.3,1.1-0.8,1.2     C23.3,76.9,21.8,77,20.3,77z"></path></g><g><path d="M50,85.2c-6.4,0-12.5-3.5-16.3-9.3c-6.2-9.9-7.5-25.8-7.8-32.1c-0.3-6.4,3.1-12.2,8.7-15.1c6.7-3.4,14.9-2.2,21.9,3.3     c0.5,0.4,1.2,1,2,1.7c3.2,2.8,8.7,7.6,14.8,8.9c0.6,0.1,0.9,0.7,0.8,1.2c-0.1,0.6-0.7,0.9-1.2,0.8c-6.6-1.5-12.3-6.4-15.7-9.4     c-0.7-0.6-1.4-1.2-1.9-1.6c-6.3-5-13.7-6.2-19.7-3.1c-5,2.6-7.9,7.5-7.6,13.2c0.3,6.2,1.5,21.6,7.4,31.1     c3.4,5.2,8.8,8.3,14.5,8.3c2.8,0,5.6-0.8,8.1-2.2c0.5-0.3,1.1-0.1,1.4,0.4c0.3,0.5,0.1,1.1-0.4,1.4C56.3,84.3,53.1,85.2,50,85.2z     "></path></g><g><path d="M68.9,69.8c-0.1,0-0.3,0-0.4-0.1c-0.5-0.2-0.8-0.8-0.5-1.4c3.5-8.1,4-16.7,4-24.8c0-0.6,0.5-1,1-1c0.6,0,1,0.5,1,1     c0,8.3-0.5,17.1-4.2,25.6C69.7,69.6,69.3,69.8,68.9,69.8z"></path></g></g><g><g><path d="M87.5,96.9H68.6c-1.5,0-2.7-1.2-2.7-2.7v-3.4l-5.1-11.6c-0.2-0.5,0-1.1,0.5-1.4c0.5-0.2,1.1,0,1.4,0.5L68,90.4v3.8     c0,0.4,0.3,0.7,0.7,0.7h18.9c0.4,0,0.7-0.3,0.7-0.7v-3.8l5.3-12c0.2-0.5,0.8-0.8,1.4-0.5c0.5,0.2,0.8,0.8,0.5,1.4l-5.1,11.6v3.4     C90.2,95.7,89,96.9,87.5,96.9z"></path></g><g><path d="M78.1,81.8c-7.6,0-20.4-1.1-20.4-5.2s12.8-5.2,20.4-5.2s20.4,1.1,20.4,5.2S85.6,81.8,78.1,81.8z M78.1,73.5     c-11.4,0-18,2-18.3,3.1c0.4,1,7,3.1,18.3,3.1c11.3,0,17.9-2,18.3-3.1C95.9,75.5,89.3,73.5,78.1,73.5z M96.4,76.6L96.4,76.6     L96.4,76.6z"></path></g><g><path d="M78.1,91.6H66.9c-0.6,0-1-0.5-1-1c0-0.6,0.5-1,1-1h11.1c0.6,0,1,0.5,1,1C79.1,91.1,78.6,91.6,78.1,91.6z"></path></g></g></g></svg>