<svg height="300" viewBox="0 0 100 100" width="300" xmlns="http://www.w3.org/2000/svg"><path d="m16 974.36218c-1.17299 0-2.26501.3289-3.1875.90625l34.25 29.81257c1.81717 1.5807 3.99222 1.5806 5.8125 0l34.3125-29.81257c-.92249-.57734-2.01451-.90625-3.1875-.90625zm-5.65625 4.0625c-.20785.61002-.34375 1.25539-.34375 1.9375v44.00002c0 3.324 2.67599 6 6 6h68c3.32401 0 6-2.676 6-6v-44.00002c0-.68211-.1359-1.32749-.34375-1.9375l-34.15625 29.65632c-3.18464 2.7654-7.87861 2.7697-11.0625 0z" transform="translate(0 -952.36218)"/></svg>