<?xml version="1.0" encoding="UTF-8"?>
<svg width="6px" height="12px" viewBox="0 0 6 12" version="1.1" xmlns="http://www.w3.org/2000/svg" xmlns:xlink="http://www.w3.org/1999/xlink">
    <!-- Generator: Sketch 59.1 (86144) - https://sketch.com -->
    <title>facebook-letter-logo</title>
    <desc>Created with Sketch.</desc>
    <g id="Page-1" stroke="none" stroke-width="1" fill="none" fill-rule="evenodd">
        <g id="tbs-site" transform="translate(-1036.000000, -9.000000)" fill="#000000" fill-rule="nonzero">
            <g id="hero" transform="translate(0.000000, -0.000000)">
                <g id="header">
                    <g id="sub">
                        <g id="facebook-letter-logo" transform="translate(1025.000000, 0.847313)">
                            <path d="M12.4104104,10.877513 C12.4104104,11.141133 12.4104104,12.3177793 12.4104104,12.3177793 L11.2,12.3177793 L11.2,14.0789424 L12.4104104,14.0789424 L12.4104104,19.3125 L14.8968504,19.3125 L14.8968504,14.0790884 L16.565367,14.0790884 C16.565367,14.0790884 16.7216309,13.2346241 16.7973775,12.3112855 C16.5802094,12.3112855 14.9062524,12.3112855 14.9062524,12.3112855 C14.9062524,12.3112855 14.9062524,11.2866967 14.9062524,11.1071073 C14.9062524,10.9271287 15.1773498,10.6850333 15.4452945,10.6850333 C15.712737,10.6850333 16.2771953,10.6850333 16.8,10.6850333 C16.8,10.4452483 16.8,9.61673891 16.8,8.8515625 C16.1020715,8.8515625 15.3080579,8.8515625 14.9580614,8.8515625 C12.3489483,8.85144089 12.4104104,10.6143552 12.4104104,10.877513 Z" id="Facebook"></path>
                        </g>
                    </g>
                </g>
            </g>
        </g>
    </g>
</svg>