<svg height='300px' width='300px'  fill="#000000" xmlns="http://www.w3.org/2000/svg" data-name="Layer 1" viewBox="0 0 48 48" x="0px" y="0px"><title>general_pack_NEW_glyph</title><path d="M40,10H8a3,3,0,0,0-3,3v5H43V13A3,3,0,0,0,40,10Z"></path><path d="M5,38a3,3,0,0,0,3,3H40a3,3,0,0,0,3-3V20H5Zm5-14H38a1,1,0,0,1,0,2H10a1,1,0,0,1,0-2Zm0,4H38a1,1,0,0,1,0,2H10a1,1,0,0,1,0-2Zm0,4H34a1,1,0,0,1,0,2H10a1,1,0,0,1,0-2Z"></path><path d="M34,6a2,2,0,0,0-2,2h4A2,2,0,0,0,34,6Z"></path><path d="M14,6a2,2,0,0,0-2,2h4A2,2,0,0,0,14,6Z"></path></svg>